<svg width="269" height="366" viewBox="0 0 269 366" fill="none" xmlns="http://www.w3.org/2000/svg">
<path fill-rule="evenodd" clip-rule="evenodd" d="M38 0H246C255.389 0 263 7.61116 263 17V349C263 358.389 255.389 366 246 366H30C13.4315 366 0 352.569 0 336V38C0 17.0132 17.0132 0 38 0ZM38 5C19.7746 5 5 19.7746 5 38V336C5 349.807 16.1929 361 30 361H246C252.627 361 258 355.627 258 349V17C258 10.3726 252.627 5 246 5H38Z" fill="white"/>
<path fill-rule="evenodd" clip-rule="evenodd" d="M259 138H250C247.239 138 245 140.239 245 143V179C245 181.761 247.239 184 250 184H259C261.761 184 264 181.761 264 179V143C264 140.239 261.761 138 259 138ZM250 133C244.477 133 240 137.477 240 143V179C240 184.523 244.477 189 250 189H259C264.523 189 269 184.523 269 179V143C269 137.477 264.523 133 259 133H250Z" fill="white"/>
<path d="M8 35C8 21.1929 19.1929 10 33 10H241C249.284 10 256 16.7157 256 25V317C256 330.807 244.807 342 231 342H33C19.1929 342 8 330.807 8 317V35Z" fill="#1A1C23"/>
<path d="M32 25C32 16.7157 38.7157 10 47 10V313H32V25Z" fill="#29283B"/>
<path d="M52 10H89V313H52V10Z" fill="#110C15"/>
<path d="M193 161C193 150.507 201.507 142 212 142H251V180H212C201.507 180 193 171.493 193 161Z" fill="#40434E"/>
<path fill-rule="evenodd" clip-rule="evenodd" d="M258 339H5V37C5 19.3269 19.3269 5 37 5H246C252.627 5 258 10.3726 258 17V339ZM37 12C23.1929 12 12 23.1929 12 37V332H251V17C251 14.2386 248.761 12 246 12H37Z" fill="black"/>
<path d="M12 336.5C12 326.835 19.835 319 29.5 319H251V349C251 351.761 248.761 354 246 354H29.5C19.835 354 12 346.165 12 336.5Z" fill="#DFDFDF"/>
<path fill-rule="evenodd" clip-rule="evenodd" d="M258 312V349C258 355.627 252.627 361 246 361H29.5C15.969 361 5 350.031 5 336.5C5 322.969 15.969 312 29.5 312H258ZM29.5 319C19.835 319 12 326.835 12 336.5C12 346.165 19.835 354 29.5 354H246C248.761 354 251 351.761 251 349V319H29.5Z" fill="black"/>
<path d="M47 319H251V354H72C58.1929 354 47 342.807 47 329V319Z" fill="#EFEFEF"/>
<path fill-rule="evenodd" clip-rule="evenodd" d="M52.5 11.9992L52.5 319.001H45.5L45.5 11.9992H52.5Z" fill="black"/>
<path fill-rule="evenodd" clip-rule="evenodd" d="M257 145H211C202.163 145 195 152.163 195 161C195 169.837 202.163 177 211 177H257V145ZM211 138C198.297 138 188 148.297 188 161C188 173.703 198.297 184 211 184H259C261.761 184 264 181.761 264 179V143C264 140.239 261.761 138 259 138H211Z" fill="black"/>
<path fill-rule="evenodd" clip-rule="evenodd" d="M214.172 180.585V168.302C214.172 165.374 211.799 163 208.87 163C205.942 163 203.569 165.374 203.569 168.302V180.585H214.172ZM208.87 158C203.181 158 198.569 162.612 198.569 168.302V185.585H219.172V168.302C219.172 162.612 214.56 158 208.87 158Z" fill="black"/>
<path d="M193 191.792C193 183.413 199.793 176.62 208.172 176.62H209.012C217.391 176.62 224.184 183.413 224.184 191.792C224.184 200.171 217.391 206.964 209.012 206.964H208.172C199.793 206.964 193 200.171 193 191.792Z" fill="#D9A443"/>
<path fill-rule="evenodd" clip-rule="evenodd" d="M190.5 191.792C190.5 182.032 198.412 174.12 208.172 174.12H209.012C218.772 174.12 226.684 182.032 226.684 191.792C226.684 201.552 218.772 209.464 209.012 209.464H208.172C198.412 209.464 190.5 201.552 190.5 191.792ZM208.172 179.12C201.173 179.12 195.5 184.793 195.5 191.792C195.5 198.79 201.173 204.464 208.172 204.464H209.012C216.011 204.464 221.684 198.79 221.684 191.792C221.684 184.793 216.011 179.12 209.012 179.12H208.172Z" fill="black"/>
<path d="M213 189C213 191.209 211.209 193 209 193C206.791 193 205 191.209 205 189C205 186.791 206.791 185 209 185C211.209 185 213 186.791 213 189Z" fill="black"/>
<path d="M209 191L212.464 198.5L205.536 198.5L209 191Z" fill="black"/>
<path d="M206 157C206 155.343 207.343 154 209 154C210.657 154 212 155.343 212 157V166C212 167.657 210.657 169 209 169C207.343 169 206 167.657 206 166V157Z" fill="black"/>
<path d="M251 145H258V177H251V145Z" fill="#40434E"/>
</svg>
