<svg width="40" height="56" viewBox="0 0 40 56" fill="none" xmlns="http://www.w3.org/2000/svg">
<path fill-rule="evenodd" clip-rule="evenodd" d="M0 36C0 24.9543 8.74638 16 19.5356 16H20.4644C31.2536 16 40 24.9543 40 36C40 47.0457 31.2536 56 20.4644 56H19.5356C8.74638 56 0 47.0457 0 36ZM19.5356 21.6587C11.799 21.6587 5.52732 28.0795 5.52732 36C5.52732 43.9205 11.799 50.3413 19.5356 50.3413H20.4644C28.201 50.3413 34.4727 43.9205 34.4727 36C34.4727 28.0795 28.201 21.6587 20.4644 21.6587H19.5356Z" fill="white"/>
<path fill-rule="evenodd" clip-rule="evenodd" d="M26.9331 27.0185L26.9331 12.324C26.9331 8.82113 24.0529 5.98147 20.5 5.98147C16.9471 5.98147 14.0669 8.82112 14.0669 12.324L14.0669 27.0185H26.9331ZM20.5 0C13.5964 0 8 5.51764 8 12.324V33H33V12.324C33 5.51765 27.4036 0 20.5 0Z" fill="white"/>
<path fill-rule="evenodd" clip-rule="evenodd" d="M24.3599 24.4686V13.3364C24.3599 10.6827 22.6317 8.53142 20.5 8.53142C18.3683 8.53142 16.6401 10.6827 16.6401 13.3364V24.4686H24.3599ZM20.5 4C16.3579 4 13 8.18003 13 13.3364L13 29H28V13.3364C28 8.18004 24.6421 4 20.5 4Z" fill="white"/>
<path fill-rule="evenodd" clip-rule="evenodd" d="M25.6722 24.5852V12.3018C25.6722 9.37371 23.2985 7 20.3704 7C17.4423 7 15.0686 9.37371 15.0686 12.3018L15.0686 24.5852H25.6722ZM20.3704 2C14.6808 2 10.0686 6.61228 10.0686 12.3018L10.0686 29.5852H30.6722L30.6722 12.3018C30.6722 6.61228 26.0599 2 20.3704 2Z" fill="black"/>
<path d="M4.5 35.7919C4.5 27.4127 11.2927 20.62 19.6719 20.62H20.5121C28.8912 20.62 35.6839 27.4127 35.6839 35.7919C35.6839 44.171 28.8912 50.9637 20.5121 50.9637H19.6719C11.2927 50.9637 4.5 44.171 4.5 35.7919Z" fill="#D9A443"/>
<path fill-rule="evenodd" clip-rule="evenodd" d="M2 35.7919C2 26.032 9.91196 18.12 19.6719 18.12H20.5121C30.2719 18.12 38.1839 26.032 38.1839 35.7919C38.1839 45.5518 30.2719 53.4637 20.5121 53.4637H19.6719C9.91196 53.4637 2 45.5518 2 35.7919ZM19.6719 23.12C12.6734 23.12 7 28.7934 7 35.7919C7 42.7903 12.6734 48.4637 19.6719 48.4637H20.5121C27.5105 48.4637 33.1839 42.7903 33.1839 35.7919C33.1839 28.7934 27.5105 23.12 20.5121 23.12H19.6719Z" fill="black"/>
<path d="M24.5 33C24.5 35.2091 22.7092 37 20.5001 37C18.2909 37.0001 16.5 35.2092 16.5 33.0001C16.5 30.7909 18.2909 29.0001 20.5 29C22.7091 29 24.5 30.7909 24.5 33Z" fill="black"/>
<path d="M20.5 35L23.9642 42.5L17.036 42.5001L20.5 35Z" fill="black"/>
</svg>
